<svg xmlns="http://www.w3.org/2000/svg" viewBox="0 0 430.36 404.77"><defs><style>.cls-1{fill:#fff;}.cls-2{stroke:#000;stroke-miterlimit:10;}.cls-3{fill:#db565b;}</style></defs><g id="图层_3" data-name="图层 3"><path d="M28.35.26H193.68a12,12,0,0,1,12,12V44.95a12,12,0,0,1-12,12H12a12,12,0,0,1-12-12V28.6A28.35,28.35,0,0,1,28.35.26Z"/><path d="M385.41,0h16.35a28.35,28.35,0,0,1,28.35,28.35V114a12,12,0,0,1-12,12H385.41a12,12,0,0,1-12-12V12A12,12,0,0,1,385.41,0Z"/><path d="M328.36,346.75h90a12,12,0,0,1,12,12v16.65A28.35,28.35,0,0,1,402,403.75H328.36a12,12,0,0,1-12-12v-33A12,12,0,0,1,328.36,346.75Z"/><path d="M12,347.31h98.23a12,12,0,0,1,12,12V392a12,12,0,0,1-12,12H28.35A28.35,28.35,0,0,1,0,375.66V359.31a12,12,0,0,1,12-12Z"/><rect x="146.98" y="126" width="56.69" height="137.87" rx="12"/><path d="M244.43,279.43h-41.2l-.41,0-.4,0H83.64a12,12,0,0,0-12,12v32.69a12,12,0,0,0,12,12H244.43a12,12,0,0,0,12-12V291.43A12,12,0,0,0,244.43,279.43Z" transform="translate(-71.64 -72.25)"/><path d="M203.23,279.43h-.81l.4,0Z" transform="translate(-71.64 -72.25)"/><path d="M218.62,260.05v3.47s0,.08,0,.12a15.81,15.81,0,0,1-15.81,15.81l-.56,0h-3.61v19.41H242V260.05Z" transform="translate(-71.64 -72.25)"/><path class="cls-1" d="M203.63,279.43v0l-.4,0Z" transform="translate(-71.64 -72.25)"/><path class="cls-1" d="M218.62,263.72c0,.08,0,.15,0,.23h0Z" transform="translate(-71.64 -72.25)"/><rect x="325.67" width="76.09" height="56.69" rx="12"/><rect x="0.44" y="22.72" width="56.69" height="57.58" rx="12"/><rect class="cls-2" x="372.86" y="285.25" width="57" height="101" rx="12"/></g><g id="图层_4" data-name="图层 4"><circle class="cls-3" cx="267.69" cy="40.15" r="40.15"/><rect class="cls-3" x="236.36" y="150.75" width="71.48" height="178.25" rx="12"/><rect class="cls-3" x="216.36" y="126" width="91.48" height="49.5" rx="12"/><path class="cls-3" d="M260.25,356.5H215.94a12,12,0,0,0-12,12v33.15l.28,2.67a12.06,12.06,0,0,0,11.72,9.43h44.31a12,12,0,0,0,12-12V368.5A12,12,0,0,0,260.25,356.5Z" transform="translate(-71.64 -72.25)"/><path class="cls-3" d="M203.94,401.75a12.12,12.12,0,0,0,.28,2.57l-.28-2.67Z" transform="translate(-71.64 -72.25)"/><path class="cls-3" d="M307.92,388.52a17.26,17.26,0,0,1,.17,2.29,18,18,0,0,1-36.09,0,19.14,19.14,0,0,1,.16-2.29H203.94v13.13l.6,5.58C213.22,446.92,248.86,477,291,477c48.55,0,88.49-39.94,88.49-88.49Z" transform="translate(-71.64 -72.25)"/><rect class="cls-3" x="190.72" y="308.38" width="9.89" height="23.49"/><rect class="cls-3" x="236.36" y="305.38" width="4.9" height="21.79"/><rect class="cls-1" x="235.71" y="313.96" width="0.65" height="3.7"/><path class="cls-3" d="M318.1,240.89H298.88v6.8l.57.07h0a8.89,8.89,0,0,1,8.56,8.89c0,.14,0,.28,0,.42v2.33H318.1Z" transform="translate(-71.64 -72.25)"/><path class="cls-1" d="M308,256.21h0c0,.07,0,.13,0,.19Z" transform="translate(-71.64 -72.25)"/></g></svg>